<?xml version="1.0" standalone="no"?>
<!DOCTYPE svg PUBLIC "-//W3C//DTD SVG 20010904//EN"
 "http://www.w3.org/TR/2001/REC-SVG-20010904/DTD/svg10.dtd">
<svg version="1.0" xmlns="http://www.w3.org/2000/svg"
 width="203.000000pt" height="246.000000pt" viewBox="0 0 203.000000 246.000000"
 preserveAspectRatio="xMidYMid meet">

<g transform="translate(0.000000,246.000000) scale(0.100000,-0.100000)"
fill="#000000" stroke="none">
<path d="M502 1952 l-472 -257 2 -523 3 -524 100 -55 c576 -314 836 -453 845
-453 10 0 224 115 845 453 l100 55 3 524 2 523 -473 258 c-261 141 -476 257
-478 257 -2 0 -217 -116 -477 -258z m777 77 c163 -89 371 -202 464 -253 l167
-91 -2 -514 -3 -514 -459 -249 c-252 -137 -465 -248 -472 -246 -7 2 -220 116
-473 253 l-461 250 3 509 2 508 465 254 c256 139 467 253 469 254 2 0 137 -73
300 -161z"/>
<path d="M335 1748 c-16 -29 -31 -56 -33 -60 -2 -3 117 -8 265 -10 235 -3 272
-5 305 -21 77 -39 90 -140 33 -255 -56 -111 -171 -195 -285 -209 l-48 -6 74
209 c41 114 74 209 74 211 0 2 -39 3 -87 3 l-88 0 -85 -241 c-47 -132 -87
-245 -89 -251 -6 -17 283 -3 354 16 114 32 205 84 281 160 93 93 128 164 132
266 3 69 1 79 -26 121 -24 37 -45 54 -98 80 l-69 34 -290 3 -290 3 -30 -53z"/>
<path d="M1276 1479 c-73 -11 -143 -45 -169 -81 -37 -50 -33 -110 12 -245 47
-139 50 -177 18 -224 -60 -91 -246 -109 -337 -32 -27 22 -31 31 -28 66 5 66
35 81 173 85 l113 4 -16 39 -15 39 -131 0 c-240 0 -326 -43 -326 -162 0 -115
122 -184 345 -195 267 -13 445 86 445 247 0 34 -15 96 -45 185 -56 165 -51
195 34 195 24 0 27 -4 27 -32 0 -75 86 -132 163 -109 78 23 114 88 83 150 -31
63 -60 76 -180 78 -59 1 -134 -3 -166 -8z"/>
<path d="M335 671 c-3 -6 17 -11 47 -13 60 -3 73 -23 39 -57 -23 -23 -46 -28
-38 -8 17 46 18 57 3 57 -15 0 -45 -75 -34 -86 10 -9 79 13 99 32 23 21 25 70
3 78 -25 10 -112 7 -119 -3z"/>
<path d="M597 650 c-18 -21 -35 -30 -55 -30 -35 0 -79 -31 -68 -48 12 -20 53
-13 84 13 17 14 34 25 40 25 5 0 7 -11 4 -25 -2 -14 0 -25 5 -25 5 0 15 11 21
25 9 19 19 25 42 25 26 0 30 -4 30 -25 0 -21 3 -24 16 -17 8 5 24 22 35 38
l19 29 0 -38 c0 -51 16 -45 53 21 32 58 30 85 -2 31 l-21 -34 0 33 c0 43 -21
41 -48 -5 l-23 -38 3 35 c3 30 0 35 -21 38 -13 2 -28 -1 -34 -7 -8 -8 -5 -11
12 -11 37 0 23 -34 -17 -38 -31 -3 -32 -2 -22 23 13 35 13 35 -9 35 -11 0 -31
-13 -44 -30z m23 -11 c-7 -11 -14 -18 -17 -15 -3 3 0 12 7 21 18 21 23 19 10
-6z m-80 -50 c-17 -14 -26 -17 -28 -9 -5 14 16 30 38 30 10 -1 7 -7 -10 -21z"/>
<path d="M1022 668 c-7 -7 -7 -19 0 -40 13 -37 -8 -64 -41 -53 -28 8 -22 27
10 36 20 6 17 7 -14 8 -26 1 -40 -4 -44 -15 -13 -35 62 -58 109 -33 17 9 19
17 14 57 l-6 47 29 -33 c29 -34 60 -40 69 -13 3 10 -2 13 -22 9 -17 -4 -25 -1
-23 6 2 6 20 12 40 14 l36 3 -16 -40 c-14 -35 -21 -41 -45 -41 -15 0 -28 -4
-28 -10 0 -13 46 -13 70 0 11 6 25 28 31 50 8 27 18 40 30 40 10 0 21 4 24 10
8 14 -209 12 -223 -2z"/>
<path d="M1354 665 c7 -19 -3 -45 -17 -45 -7 0 -7 4 1 12 22 22 12 32 -11 10
-13 -12 -33 -22 -44 -22 -39 0 -73 -19 -73 -40 0 -29 45 -26 86 5 18 14 36 25
39 25 4 0 4 -11 1 -25 -5 -18 -2 -25 8 -25 7 0 17 11 20 25 5 21 13 25 44 27
37 1 37 1 5 5 -37 5 -36 3 -23 37 9 24 7 26 -16 26 -19 0 -25 -4 -20 -15z
m-73 -75 c-12 -11 -28 -17 -34 -13 -12 8 20 33 42 33 12 -1 10 -6 -8 -20z"/>
<path d="M1508 668 c-9 -7 -21 -30 -28 -50 -10 -33 -16 -38 -41 -38 -16 0 -29
-4 -29 -10 0 -6 31 -10 74 -10 41 0 78 5 81 10 4 6 -10 10 -36 10 -40 0 -41 1
-26 18 10 10 17 28 17 40 0 11 5 24 10 27 6 3 10 1 10 -4 0 -6 9 -11 20 -11
11 0 20 7 20 15 0 19 -49 20 -72 3z"/>
<path d="M840 600 c0 -5 11 -10 24 -10 14 0 28 5 31 10 4 6 -7 10 -24 10 -17
0 -31 -4 -31 -10z"/>
</g>
</svg>
